<svg width="50" height="50" viewBox="0 0 50 50" fill="none" xmlns="http://www.w3.org/2000/svg">
<g clip-path="url(#clip0_11_15)">
<path d="M36.982 13.3747C30.6687 9.58427 14.3429 10.3837 10.1103 14.6821C9.08768 15.7167 8.77645 16.9112 9.18549 18.1621C9.15881 18.2374 9.13214 18.322 9.13214 18.4161V30.0508L9.14992 30.2859L9.23884 30.427C9.48782 30.8126 11.7197 34.1798 14.4585 34.1798C14.8142 34.1798 15.1076 33.8694 15.1076 33.4838V25.1787C16.6015 23.1001 20.6296 21.7551 24.9867 21.9338C28.9703 22.0749 32.1003 23.4481 33.3808 25.602V33.2863C33.3808 33.512 33.4697 33.7284 33.6208 33.8789C33.7631 34.0293 33.9587 34.114 34.1633 34.114H34.1899C36.9287 34.0199 39.1606 31.0102 39.5785 30.3988C39.6763 30.2577 39.7297 30.0884 39.7297 29.9191V18.6512C40.032 17.1558 39.7919 15.0395 36.982 13.3559V13.3747ZM25.04 20.7769C21.5632 20.6546 17.4373 21.4729 15.1254 23.5139V21.5199C15.1254 21.1531 14.8408 20.8427 14.4852 20.8427C12.5823 20.8145 10.9105 18.8205 10.3681 18.0869C9.94131 17.1558 10.1014 16.3375 10.8928 15.538C14.7964 11.5688 30.562 10.8728 36.4485 14.3999C37.9602 15.3029 38.6982 16.3751 38.7249 17.626L38.6804 17.6825C38.3247 18.1716 36.4129 20.6358 34.1544 20.7299C33.7364 20.7487 33.4074 21.1061 33.4074 21.5482V23.8055C31.6468 22.0184 28.6591 20.8992 25.0489 20.7675L25.04 20.7769Z" fill="#74A8D9"/>
<path d="M27.6987 15.8578H20.8252C19.3224 15.8578 18.0864 17.1652 18.0864 18.7547V35.6095C18.0864 37.199 19.3224 38.5064 20.8252 38.5064H27.6987C29.2015 38.5064 30.4375 37.199 30.4375 35.6095V18.7547C30.4375 17.1652 29.2015 15.8578 27.6987 15.8578ZM24.8888 37.4624H23.3594C23.066 37.4624 22.8348 37.2084 22.8348 36.9074C22.8348 36.6065 23.0749 36.3525 23.3594 36.3525H24.8888C25.1823 36.3525 25.4135 36.6065 25.4135 36.9074C25.4135 37.2084 25.1734 37.4624 24.8888 37.4624ZM28.5879 33.3804C28.5879 34.3209 27.8588 35.0922 26.9696 35.0922H21.5632C20.674 35.0922 19.9449 34.3209 19.9449 33.3804V19.6388C19.9449 18.6983 20.674 17.927 21.5632 17.927H26.9696C27.8588 17.927 28.5879 18.6983 28.5879 19.6388V33.3804Z" fill="#74A8D9"/>
<path d="M26.9607 17.9364H21.5543C20.6605 17.9364 19.936 18.7028 19.936 19.6482V33.3992C19.936 34.3446 20.6605 35.111 21.5543 35.111H26.9607C27.8545 35.111 28.5791 34.3446 28.5791 33.3992V19.6482C28.5791 18.7028 27.8545 17.9364 26.9607 17.9364Z" fill="white"/>
<path d="M24.8888 36.3525H23.3594C23.066 36.3525 22.8348 36.6065 22.8348 36.9075C22.8348 37.2084 23.0749 37.4624 23.3594 37.4624H24.8888C25.1823 37.4624 25.4135 37.2084 25.4135 36.9075C25.4135 36.6065 25.1734 36.3525 24.8888 36.3525Z" fill="white"/>
<path d="M26.8718 5.0696L24.3109 2.67118L22.0523 4.8909L20.7807 3.44244L24.2753 0L28.1078 3.58352L26.8718 5.0696Z" fill="#74A8D9"/>
<path d="M24.2753 50L20.7807 46.5576L22.0523 45.1091L24.3109 47.3288L26.8718 44.9304L28.1078 46.4165L24.2753 50Z" fill="#74A8D9"/>
<path d="M46.6121 28.9033L45.2161 27.5959L47.4836 24.8871L45.3761 22.4981L46.7455 21.1437L50 24.8495L46.6121 28.9033Z" fill="#74A8D9"/>
<path d="M3.38787 28.9033L0 24.8495L3.25449 21.1437L4.62387 22.4981L2.52534 24.8871L4.79282 27.5959L3.38787 28.9033Z" fill="#74A8D9"/>
</g>
<defs>
<clipPath id="clip0_11_15">
<rect width="50" height="50" fill="white"/>
</clipPath>
</defs>
</svg>
